<svg width="154" height="41" viewBox="0 0 154 41" fill="none" xmlns="http://www.w3.org/2000/svg">
<g clip-path="url(#clip0_246_14)">
<path d="M17.838 0.18717C14.8286 0.544431 11.2644 1.92244 8.62486 3.7768C2.84145 7.80875 -0.588242 15.3453 0.151496 22.4224C0.353243 24.3619 0.924859 26.7606 1.49647 28.1386L1.84953 28.9552L3.78294 27.0839C6.43927 24.498 9.11241 22.3714 10.2052 21.9461C11.6006 21.4187 12.9288 21.4868 14.8118 22.1843C16.6947 22.8648 18.7122 23.3241 22.0242 23.8175C24.8991 24.2258 26.1432 24.532 26.7316 24.9743C27.2696 25.3826 27.3537 25.7909 26.9502 26.2332C26.1264 27.1689 23.8231 27.6623 19.3511 27.8324L16.308 27.9515V28.8702V29.7888L20.7297 29.7378C24.7814 29.6868 25.2185 29.6527 26.1264 29.3125C27.6395 28.7341 28.7659 27.7644 30.0773 25.91C31.7249 23.5453 32.5823 22.7967 33.591 22.7967C34.1963 22.7967 34.6334 23.2561 34.6334 23.9195C34.6334 24.498 33.776 26.6245 32.7504 28.632C31.5735 30.9287 28.396 33.8718 25.8574 35.0287C23.5373 36.0834 21.9233 36.1345 17.031 35.2839C12.3572 34.4673 10.6591 34.5353 7.95237 35.6411C7.54888 35.7942 7.22944 35.9984 7.22944 36.0834C7.22944 36.3726 9.71765 38.0058 11.5166 38.8905C17.031 41.5955 23.3692 41.6295 28.8668 38.9585C33.2548 36.849 36.4155 33.6507 38.5002 29.2104C42.1653 21.4697 40.5681 12.1469 34.5325 6.05646C30.1781 1.63323 23.9912 -0.527353 17.838 0.18717ZM22.7976 7.62161C23.1674 7.80875 23.6718 8.20004 23.9408 8.48925L24.4284 8.99962L25.1681 8.33613C27.4209 6.32867 30.7161 7.04319 32.0611 9.83323C32.4478 10.6328 32.5318 11.0241 32.5318 12.0789C32.515 14.4606 31.5567 15.8046 27.0006 19.7685C25.6052 20.9594 24.4452 21.9461 24.3947 21.9461C24.3443 21.9461 24.0249 21.6909 23.7054 21.3847C23.386 21.0785 22.4445 20.2448 21.6039 19.5473C19.4856 17.744 17.4681 15.5494 16.9805 14.5457C16.6275 13.8141 16.5602 13.4569 16.5602 12.0789C16.5602 10.7519 16.6275 10.3436 16.9301 9.78219C18.107 7.55356 20.7801 6.56684 22.7976 7.62161Z" fill="#0055AD"/>
<path d="M95.6615 13.1336V16.5872L95.3421 16.0428C94.7873 15.1411 93.6441 14.5797 92.1478 14.4946C88.9366 14.3075 87.2722 15.7706 86.9528 19.088C86.667 21.9461 87.205 24.3108 88.3818 25.3656C90.3152 27.0668 94.1484 26.7436 95.3253 24.7872L95.6615 24.2428V25.2125V26.1992H97.4268H99.1921V17.9482V9.69712H97.4268H95.6615V13.1336ZM94.8882 17.8461C95.6615 18.6116 95.8801 19.3092 95.796 20.8403C95.7456 21.9291 95.6784 22.1672 95.2244 22.7457C94.0812 24.1747 91.7443 24.1747 90.7187 22.7457C90.4161 22.3374 90.3657 22.0141 90.3657 20.6191C90.3657 17.8291 90.9373 17.1145 93.0893 17.2166C94.2157 17.2677 94.3502 17.3187 94.8882 17.8461Z" fill="#0055AD"/>
<path d="M54.3039 10.9391C51.7316 11.5516 50.7061 12.7935 50.6893 15.3113C50.6893 18.0674 51.5803 18.8499 55.6321 19.6835C58.3557 20.2279 58.6919 20.4491 58.7087 21.657C58.7255 22.3375 58.6415 22.5586 58.2884 22.9329C57.8849 23.3242 57.6664 23.3922 56.5904 23.4433C55.6657 23.4943 55.195 23.4433 54.741 23.2221C54.1022 22.9159 53.6314 22.2354 53.6314 21.6059C53.6314 21.2827 53.5305 21.2657 51.9334 21.2657H50.2354L50.353 22.0653C50.7061 24.5831 52.236 25.9781 55.0268 26.3694C58.322 26.8288 61.1969 25.6379 61.9535 23.4943C62.357 22.3034 62.2897 20.4831 61.7854 19.4454C61.096 18.0503 60.2723 17.608 57.0779 16.9275C54.7578 16.4342 54.2367 16.1449 54.1694 15.2603C54.1022 14.4267 54.6402 13.8653 55.6825 13.7122C57.0611 13.508 58.2043 13.9674 58.507 14.886L58.7087 15.4815H60.3395H61.9871L61.8526 14.6819C61.3819 12.13 59.8015 10.9221 56.7417 10.786C55.8506 10.752 54.8419 10.82 54.3039 10.9391Z" fill="#0055AD"/>
<path d="M83.8932 14.6818C83.1535 14.92 82.212 15.8727 81.7076 16.9274L81.2873 17.7781L81.2369 16.281L81.1865 14.8009H79.522H77.8408V20.5V26.1992H79.522H81.2033V24.1917C81.2033 20.0407 81.9094 18.4245 83.8764 18.1183C85.3559 17.8631 85.2382 18.0503 85.2382 16.1619C85.2382 14.2565 85.2382 14.2565 83.8932 14.6818Z" fill="#0055AD"/>
<path d="M105.245 14.6988C102.723 15.4134 101.664 16.8254 101.429 19.7685C101.244 22.2013 101.967 24.3959 103.261 25.3486C104.32 26.1312 105.548 26.4204 107.683 26.4204C110.625 26.4204 112.205 25.6719 113.063 23.9196C114.239 21.5038 113.92 17.693 112.407 16.0258C111.919 15.4814 110.726 14.886 109.65 14.6478C108.506 14.4096 106.203 14.4266 105.245 14.6988ZM109.112 17.4889C109.986 17.9312 110.289 18.6797 110.289 20.4661C110.289 22.5926 109.818 23.3922 108.355 23.6644C107.262 23.8685 106.136 23.6134 105.548 23.0009C105.144 22.6096 105.026 22.3034 104.925 21.4528C104.774 20.1598 104.959 18.6797 105.329 18.1013C105.48 17.8631 105.85 17.5569 106.136 17.4378C106.892 17.0976 108.406 17.1146 109.112 17.4889Z" fill="#0055AD"/>
<path d="M127.185 14.7839C126.546 15.0731 125.974 15.6175 125.47 16.4341C125.302 16.7063 125.268 16.6042 125.268 15.7706L125.251 14.8009H123.57H121.889V20.5V26.1992H123.57H125.251V22.5586C125.251 20.381 125.318 18.7137 125.436 18.4245C125.755 17.5739 126.243 17.1826 127.033 17.1826C127.622 17.1826 127.823 17.2677 128.176 17.71L128.614 18.2374V22.2183V26.1992H130.295H131.976V23.0859C131.976 19.2752 132.144 18.0843 132.733 17.5569C133.254 17.1146 134.246 17.0465 134.784 17.4378C135.389 17.8631 135.507 18.7478 135.507 22.5756V26.1992H137.205H138.886L138.835 21.4698C138.785 16.8934 138.768 16.7403 138.381 15.9237C138.079 15.2942 137.81 15.022 137.289 14.7839C135.54 13.9843 133.086 14.7158 132.363 16.2639C132.211 16.5872 132.043 16.8424 131.993 16.8424C131.942 16.8424 131.724 16.4511 131.522 15.9917C131.219 15.2942 131.018 15.0731 130.429 14.8009C129.505 14.3756 128.076 14.3586 127.185 14.7839Z" fill="#0055AD"/>
<path d="M144.686 14.7159C143.207 15.1412 142.383 15.7877 141.727 17.0806C141.139 18.2375 141.139 18.2885 141.139 20.398C141.139 22.3885 141.172 22.6096 141.609 23.5964C141.878 24.1578 142.299 24.8213 142.534 25.0594C144.417 26.8968 149.864 26.9308 151.798 25.1275C152.268 24.6852 152.806 23.5623 152.823 23.0009C152.823 22.6437 152.773 22.6267 151.26 22.6267C149.73 22.6267 149.679 22.6437 149.494 23.069C149.108 23.9026 147.124 24.2769 145.846 23.7495C145.157 23.4433 144.585 22.5756 144.585 21.8101V21.2657H148.889H153.193L153.092 19.9387C152.739 15.9408 151.041 14.4267 146.888 14.4777C146.132 14.4777 145.14 14.5968 144.686 14.7159ZM148.62 17.2677C149.158 17.5399 149.629 18.3055 149.629 18.8839C149.629 19.2072 149.545 19.2242 147.107 19.2242C144.602 19.2242 144.585 19.2242 144.585 18.8329C144.585 18.3055 145.19 17.3698 145.644 17.1827C146.25 16.9275 148.082 16.9785 148.62 17.2677Z" fill="#0055AD"/>
<path d="M64.5929 19.4284C64.6434 23.9877 64.6434 24.0898 65.0637 24.9064C65.6185 26.0462 66.3582 26.4205 67.989 26.4375C69.4012 26.4375 70.2923 26.0462 71.0992 25.0595L71.6204 24.413V25.3147V26.1993H73.3857H75.151V20.5002V14.801H73.3857H71.6204V18.5437C71.6204 22.5587 71.5532 22.984 70.7462 23.5454C69.9056 24.1408 68.4261 23.7155 68.1067 22.7798C67.989 22.4396 67.9217 20.8064 67.9217 18.5267V14.801H66.2237H64.5425L64.5929 19.4284Z" fill="#0055AD"/>
<path d="M116.391 22.9667C115.87 23.1879 115.668 23.6642 115.668 24.668C115.668 25.8248 115.87 26.1481 116.694 26.3692C117.669 26.6414 118.611 26.4373 119.048 25.8929C119.334 25.5186 119.384 25.2634 119.334 24.4468C119.283 23.8344 119.149 23.358 118.98 23.1879C118.661 22.8647 116.963 22.7115 116.391 22.9667Z" fill="#0055AD"/>
</g>
<defs>
<clipPath id="clip0_246_14">
<rect width="154" height="41" fill="white"/>
</clipPath>
</defs>
</svg>
